<?xml version="1.0" encoding="utf-8"?>
<!-- Generator: Adobe Illustrator 23.0.2, SVG Export Plug-In . SVG Version: 6.00 Build 0)  -->
<svg version="1.1"
	 id="Capa_1" inkscape:version="1.1.2 (0a00cf5339, 2022-02-04, custom)" sodipodi:docname="bandcamp.svg" xmlns:inkscape="http://www.inkscape.org/namespaces/inkscape" xmlns:sodipodi="http://sodipodi.sourceforge.net/DTD/sodipodi-0.dtd" xmlns:svg="http://www.w3.org/2000/svg"
	 xmlns="http://www.w3.org/2000/svg" xmlns:xlink="http://www.w3.org/1999/xlink" x="0px" y="0px" viewBox="0 0 1920 1080"
	 style="enable-background:new 0 0 1920 1080;" xml:space="preserve">
<sodipodi:namedview  bordercolor="#666666" borderopacity="1.0" id="namedview15" inkscape:current-layer="g12" inkscape:cx="375.65217" inkscape:cy="210.43478" inkscape:pagecheckerboard="0" inkscape:pageopacity="0.0" inkscape:pageshadow="2" inkscape:window-height="835" inkscape:window-maximized="1" inkscape:window-width="1600" inkscape:window-x="0" inkscape:window-y="0" inkscape:zoom="0.2875" pagecolor="#ffffff" showgrid="false">
	</sodipodi:namedview>
<g id="g12">
	<path id="path4" d="M0,802.8C37,734.1,73.1,667,109.4,599.9C181.1,467.7,252.7,335.5,325,203.6c3.3-6.1,13.3-12.1,20.2-12.1
		c227.5-0.6,455-0.5,682.5-0.5c3.7,0,7.5,0.5,14,1c-18.6,34.7-36,67.4-53.6,100c-80.9,149.4-162,298.7-242.9,448.1
		c-10.1,18.7-19.8,37.7-30.6,56c-2.3,4-8.8,7.8-13.3,7.8c-231,0.4-462.1,0.3-693.2,0.3C6.1,804.3,4.1,803.5,0,802.8z"/>
	<path id="path6" d="M1049.8,192.5v610.4h84.6v-56.3c2-1,4-2.1,6-3.2c1.3,2.9,2.5,5.8,3.9,8.7c37.3,78.1,208.8,94.9,277.3,3.2
		c61.3-82.1,69.2-229.7,15.2-317.2c-48.3-78.3-144.4-111.7-225.4-74.8c-25.8,11.7-47.2,33.2-71.2,50.7V192.5H1049.8z M1258.6,423
		c3.4-0.1,6.8,0,10.3,0.1c42.8,1.7,82.8,33.8,98.9,83.1c2.1,6.3,3.8,12.8,5.4,19.3c1.5,6.2,2.8,12.5,4,18.8
		c2.5,13.1,4.7,26.3,7.5,39.3c-3.8,46.5-10.7,91-42.8,124.8c-2.1,2.3-4.4,4.5-6.8,6.6c-45.6,41.5-111.9,37.4-153.2-2.2
		c-3.2-3-6.2-6.3-9.1-9.8c-5.7-6.9-10.8-14.7-15-23.2c-5.7-11.5-10.3-23.2-13.8-34.8c0,0,0,0,0,0c-1.2-3.9-2.2-7.8-3.2-11.7
		c0,0,0,0,0,0c-0.9-3.9-1.8-7.8-2.5-11.7c0,0,0,0,0,0c-0.7-3.9-1.3-7.8-1.8-11.7c0,0,0,0,0,0c-0.5-3.9-0.9-7.8-1.1-11.8c0,0,0,0,0,0
		c-0.3-3.9-0.4-7.8-0.5-11.8c0,0,0,0,0,0c-0.1-3.9,0-7.9,0.2-11.8c0,0,0,0,0,0c0.2-3.9,0.4-7.9,0.8-11.8c0,0,0,0,0,0
		c0.4-3.9,0.8-7.9,1.4-11.8c0,0,0,0,0,0c0.6-3.9,1.2-7.9,2-11.8c0,0,0,0,0,0c0.8-3.9,1.6-7.9,2.6-11.8c0,0,0,0,0,0
		c1-3.9,2-7.9,3.2-11.8c0,0,0,0,0,0c2.3-7.9,5-15.7,8-23.5C1170.8,446.4,1207.7,423.9,1258.6,423z"/>
	<path id="path8" d="M1919.2,505.1c-31,0-59.8,0-88.1,0c-37.7-73.6-68.1-92.3-129.1-79.5c-39.5,8.3-67.1,32.5-79.2,70
		c-22.2,69.1-25.7,138.5,15,203c23.8,37.7,61.4,49.2,103.8,43.3c40.5-5.7,65.7-31.2,79.3-68.7c3.6-9.9,6.2-20.2,9.5-31.4
		c29.2,0,57.9,0,89.5,0c-7.6,46.4-21.5,88.3-54.8,120.6c-67.1,64.9-146.8,70-228.1,37c-83.6-33.9-114.8-106.4-119.7-191.7
		c-4.4-77.3,8.8-150.7,68.1-206.1c62.4-58.2,137.9-63.9,216.3-41.3c64.7,18.6,103.6,63,116.4,129.6
		C1919,494.1,1918.8,498.6,1919.2,505.1z"/>
</g>
</svg>
