<?xml version="1.0" encoding="UTF-8" standalone="no"?>
<!-- Generator: Adobe Illustrator 23.0.2, SVG Export Plug-In . SVG Version: 6.00 Build 0)  -->

<svg
   version="1.1"
   id="Capa_1"
   x="0px"
   y="0px"
   viewBox="0 0 1920 1080"
   style="enable-background:new 0 0 1920 1080;"
   xml:space="preserve"
   sodipodi:docname="bandcamp.svg"
   inkscape:version="1.1.2 (0a00cf5339, 2022-02-04, custom)"
   xmlns:inkscape="http://www.inkscape.org/namespaces/inkscape"
   xmlns:sodipodi="http://sodipodi.sourceforge.net/DTD/sodipodi-0.dtd"
   xmlns="http://www.w3.org/2000/svg"
   xmlns:svg="http://www.w3.org/2000/svg"><defs
   id="defs17" /><sodipodi:namedview
   id="namedview15"
   pagecolor="#ffffff"
   bordercolor="#666666"
   borderopacity="1.0"
   inkscape:pageshadow="2"
   inkscape:pageopacity="0.0"
   inkscape:pagecheckerboard="0"
   showgrid="false"
   inkscape:zoom="0.575"
   inkscape:cx="155.65217"
   inkscape:cy="540"
   inkscape:window-width="1600"
   inkscape:window-height="835"
   inkscape:window-x="0"
   inkscape:window-y="0"
   inkscape:window-maximized="1"
   inkscape:current-layer="Capa_1" />
<style
   type="text/css"
   id="style2">
	.st0{fill:#FFFFFF;}
</style>
<g
   id="g12">
	<path
   class="st0"
   d="M0,802.75c37.05-68.68,73.13-135.8,109.43-202.81c71.64-132.23,143.27-264.48,215.58-396.35   c3.33-6.07,13.3-12.06,20.2-12.08c227.5-0.63,455-0.52,682.51-0.48c3.73,0,7.46,0.53,14.01,1.03c-18.61,34.69-36,67.39-53.64,99.95   c-80.94,149.39-161.95,298.73-242.92,448.1c-10.14,18.71-19.79,37.71-30.61,56.02c-2.34,3.96-8.76,7.84-13.3,7.85   c-231.05,0.38-462.1,0.34-693.15,0.29C6.11,804.27,4.11,803.55,0,802.75z"
   id="path4" />
	<path
   id="path6"
   class="st0"
   d="M 1049.7891 192.5293 L 1049.7891 802.90039 L 1134.4004 802.90039 L 1134.4004 746.57031 C 1136.4004 745.52031 1138.4004 744.46039 1140.4004 743.40039 C 1141.6804 746.31039 1142.8995 749.24914 1144.2695 752.11914 C 1181.6095 830.21914 1353.0605 847.06078 1421.5605 755.30078 C 1482.8505 673.19078 1490.7491 525.57008 1436.7891 438.08008 C 1388.5191 359.83008 1292.3894 326.41023 1211.3594 363.24023 C 1185.5694 374.96023 1164.2091 396.40039 1140.1191 413.90039 L 1140.1191 192.5293 L 1049.7891 192.5293 z M 1258.5625 423.04688 C 1261.9503 422.99139 1265.4002 423.03305 1268.9102 423.16992 C 1311.7302 424.83992 1351.7401 456.9293 1367.8301 506.2793 C 1369.8965 512.61314 1371.6392 519.05274 1373.1895 525.55469 C 1374.6707 531.76883 1375.9703 538.04205 1377.1895 544.3418 C 1379.7181 557.4151 1381.9063 570.59903 1384.6504 583.59961 C 1380.8816 630.11882 1373.9659 674.58123 1341.8867 708.35156 C 1339.7484 710.60256 1337.4993 712.80751 1335.1309 714.96094 C 1289.5415 756.42281 1223.203 752.37922 1181.8906 712.78711 C 1178.7127 709.74156 1175.6831 706.48516 1172.8223 703.02344 C 1167.1005 696.1 1162.0534 688.35406 1157.8496 679.82031 C 1152.1611 668.27464 1147.5834 656.65696 1144.0605 644.98828 C 1144.0604 644.98768 1144.0607 644.98693 1144.0605 644.98633 C 1142.8864 641.09718 1141.8286 637.20263 1140.8867 633.30273 C 1140.8866 633.30211 1140.8869 633.3014 1140.8867 633.30078 C 1139.9449 629.4009 1139.118 625.49706 1138.4043 621.58789 C 1138.4042 621.58726 1138.4044 621.58657 1138.4043 621.58594 C 1137.6907 617.67678 1137.0893 613.76269 1136.5996 609.8457 C 1136.5995 609.84506 1136.5997 609.84439 1136.5996 609.84375 C 1136.1101 605.92741 1135.7327 602.00669 1135.4629 598.08398 C 1135.4628 598.08269 1135.463 598.08138 1135.4629 598.08008 C 1135.1932 594.15738 1135.0307 590.23229 1134.9766 586.30469 C 1134.9765 586.30339 1134.9766 586.30208 1134.9766 586.30078 C 1134.9225 582.37318 1134.9754 578.44472 1135.1328 574.51367 C 1135.1329 574.51238 1135.1328 574.51106 1135.1328 574.50977 C 1135.2903 570.57871 1135.5532 566.64594 1135.918 562.71289 C 1135.9181 562.71161 1135.9178 562.71027 1135.918 562.70898 C 1136.2828 558.77592 1136.7523 554.84179 1137.3203 550.9082 C 1137.3205 550.90694 1137.3201 550.90556 1137.3203 550.9043 C 1137.8884 546.97069 1138.5571 543.03815 1139.3242 539.10547 C 1139.3245 539.10423 1139.324 539.1028 1139.3242 539.10156 C 1140.0914 535.16886 1140.9579 531.23696 1141.9199 527.30664 C 1141.9202 527.30543 1141.9196 527.30395 1141.9199 527.30273 C 1142.8822 523.37179 1143.9407 519.44272 1145.0938 515.51562 C 1145.0939 515.51503 1145.0936 515.51426 1145.0938 515.51367 C 1147.4003 507.65826 1150.0859 499.81172 1153.1309 491.98047 C 1170.8496 446.39922 1207.7452 423.87916 1258.5625 423.04688 z " />
	<path
   class="st0"
   d="M1919.23,505.07c-30.99,0-59.78,0-88.06,0c-37.7-73.58-68.05-92.27-129.11-79.49   c-39.5,8.27-67.11,32.47-79.16,69.95c-22.21,69.11-25.67,138.48,14.99,202.97c23.78,37.72,61.37,49.23,103.81,43.29   c40.47-5.67,65.66-31.17,79.28-68.74c3.6-9.92,6.16-20.22,9.51-31.36c29.17,0,57.91,0,89.5,0c-7.55,46.41-21.46,88.3-54.82,120.6   c-67.07,64.94-146.84,69.96-228.13,36.97c-83.58-33.92-114.82-106.4-119.71-191.71c-4.44-77.31,8.78-150.71,68.11-206.09   c62.36-58.21,137.94-63.91,216.3-41.31c64.66,18.65,103.63,63.05,116.4,129.59C1918.97,494.09,1918.8,498.63,1919.23,505.07z"
   id="path8" />
	
</g>
</svg>
