<?xml version="1.0" encoding="utf-8"?>
<!-- Generator: Adobe Illustrator 23.0.2, SVG Export Plug-In . SVG Version: 6.00 Build 0)  -->
<svg version="1.1"
	 id="svg5" inkscape:version="1.1.2 (0a00cf5339, 2022-02-04, custom)" sodipodi:docname="spotify.svg" xmlns:inkscape="http://www.inkscape.org/namespaces/inkscape" xmlns:sodipodi="http://sodipodi.sourceforge.net/DTD/sodipodi-0.dtd" xmlns:svg="http://www.w3.org/2000/svg"
	 xmlns="http://www.w3.org/2000/svg" xmlns:xlink="http://www.w3.org/1999/xlink" x="0px" y="0px" viewBox="0 0 1080 1080"
	 style="enable-background:new 0 0 1080 1080;" xml:space="preserve">
<sodipodi:namedview  bordercolor="#666666" borderopacity="1.0" id="namedview7" inkscape:current-layer="layer1" inkscape:cx="-145.11061" inkscape:cy="650.53824" inkscape:document-units="px" inkscape:pagecheckerboard="0" inkscape:pageopacity="0.0" inkscape:pageshadow="2" inkscape:window-height="835" inkscape:window-maximized="1" inkscape:window-width="1600" inkscape:window-x="0" inkscape:window-y="0" inkscape:zoom="0.4065864" pagecolor="#ffffff" showgrid="false" width="1080px">
	</sodipodi:namedview>
<g id="layer1" inkscape:groupmode="layer" inkscape:label="Capa 1">
	<path id="path21" d="M507.3,889.5c-108.7-5.4-208.8-57.8-276.5-144.6c-36.8-47.2-62.3-105.4-72.4-164.6
		c-12-71-3.6-144.2,24.1-208.9c4.1-9.5,4.6-10.6,9.8-21.1c48.3-96.8,137-168.4,241.3-194.8c18.5-4.7,36.6-7.8,57.3-10
		c13.9-1.5,55.2-1.5,69.6,0c63.3,6.4,120.1,26.4,171.2,60.3c94.1,62.5,154.8,163.5,165.5,275.6c8.7,91-16.4,182.2-70.2,255.5
		C752.5,838.8,633,895.7,507.3,889.5L507.3,889.5z M683.3,692.8c9.1-2.4,16.3-10.5,17.3-19.7c1.2-10.5-3-18.3-13.4-24.7
		c-34.6-21.4-81-39.4-123.9-48c-32.9-6.6-58.3-9-95.1-9c-35.6,0-64.8,2.5-100.9,8.7c-16,2.7-35.8,6.7-41.8,8.5
		c-7.4,2.1-13.8,8.5-16,15.9c-3.8,12.8,3.8,26.1,16.8,29.6c3.9,1,7.9,0.9,13.3-0.3c4.9-1.2,22.9-4.8,27.8-5.7
		c1.6-0.3,4.4-0.8,6.2-1.1c16.8-3,36.9-5.5,59.7-7.4c11.8-1,57.5-1,68.5,0c8.1,0.7,21.6,2.2,24.6,2.6c0.9,0.1,3.6,0.5,6,0.9
		c31.6,4.6,68.6,15.1,93.4,26.7c2.3,1.1,4.2,1.9,4.4,1.9c1.3,0,26.7,13.5,34,18.1C670,693.3,677,694.4,683.3,692.8L683.3,692.8z
		 M723.8,594.1c7-1.3,15.1-6.8,19-12.9c2.9-4.6,4.5-10,4.5-15.6c0-12.2-5.4-20.6-18-28c-28.2-16.6-56-29.1-88.7-40.1
		c-16.1-5.4-37.6-11.4-50.3-14.1c-1.5-0.3-3.7-0.8-4.8-1c-24.6-5.5-51.2-9.3-83.4-11.9c-12.3-1-64.7-1-76.9,0
		c-20.3,1.7-39.5,4-52.7,6.3c-1.8,0.3-4.6,0.8-6.2,1.1c-13.1,2.3-40.4,8.8-50.5,12c-11,3.5-17.6,9.5-21.2,19.1
		c-1.6,4.2-2.1,10.8-1.2,15.1c0.4,1.8,0.6,3.4,0.6,3.5c0,0.2,0.9,2.1,2.1,4.4c5.2,9.9,15.4,16.1,26.4,16.1c3.1,0,6.2-0.6,13.8-2.7
		c10.6-3,13.4-3.7,27.2-6.8c5.4-1.2,16.7-3.3,22.5-4.2c17.8-2.6,24.8-3.4,43.2-4.9c11.1-0.9,56.2-0.9,67.4,0
		c28.6,2.3,45.8,4.6,68.5,9.1c49.5,9.9,94.4,26.4,132.5,48.7c7.3,4.3,12.2,6.5,15.5,7C715.9,594.8,720.9,594.7,723.8,594.1
		L723.8,594.1z M773.3,478.7c17.2-4.4,28.8-21.7,26.2-38.8c-1.3-8.6-4-13.9-10.3-20.2c-3.8-3.7-6-5.3-13.2-9.4
		c-43.5-24.5-95.5-43-153-54.6c-10.6-2.1-10.8-2.2-23.9-4.4c-40.3-6.9-83.6-10.4-127.8-10.4c-23.5,0-52.8,1.3-69.9,3.1
		c-1.7,0.2-5.5,0.6-8.4,0.9c-33.6,3.5-67.5,9.9-95.5,18c-10.9,3.2-17.3,7.1-22.2,13.6c-3.3,4.3-4.9,7.9-6.4,13.6
		c-2.9,11.5,0.5,23.8,9.2,32.6c6,6.1,11.8,9,20.7,10.4c5.1,0.8,9.2,0.3,18.1-2.3c28.1-8.1,60.5-13.9,94.9-16.8
		c73.2-6.4,151.4-0.7,218.8,15.8c43.1,10.5,81,25.1,111.9,42.8c7.1,4.1,9.5,5.2,13.4,6.3C759.4,479.8,769.2,479.8,773.3,478.7
		L773.3,478.7z"/>
</g>
</svg>
