<?xml version="1.0" encoding="UTF-8" standalone="no"?>
<!-- Created with Inkscape (http://www.inkscape.org/) -->

<svg
   width="1080"
   height="1080"
   viewBox="0 0 1080 1080"
   version="1.1"
   id="svg5"
   inkscape:version="1.1.2 (0a00cf5339, 2022-02-04, custom)"
   sodipodi:docname="spotify.svg"
   xmlns:inkscape="http://www.inkscape.org/namespaces/inkscape"
   xmlns:sodipodi="http://sodipodi.sourceforge.net/DTD/sodipodi-0.dtd"
   xmlns="http://www.w3.org/2000/svg"
   xmlns:svg="http://www.w3.org/2000/svg">
  <sodipodi:namedview
     id="namedview7"
     pagecolor="#ffffff"
     bordercolor="#666666"
     borderopacity="1.0"
     inkscape:pageshadow="2"
     inkscape:pageopacity="0.0"
     inkscape:pagecheckerboard="0"
     inkscape:document-units="px"
     showgrid="false"
     width="1080px"
     inkscape:zoom="0.4065864"
     inkscape:cx="349.24926"
     inkscape:cy="650.53824"
     inkscape:window-width="1600"
     inkscape:window-height="835"
     inkscape:window-x="0"
     inkscape:window-y="0"
     inkscape:window-maximized="1"
     inkscape:current-layer="layer1" />
  <defs
     id="defs2" />
  <g
     inkscape:label="Capa 1"
     inkscape:groupmode="layer"
     id="layer1">
    <path
       style="fill:#ffffff;fill-opacity:1;stroke-width:0.56163"
       d="m 507.33756,889.51241 c -108.69102,-5.3889 -208.84314,-57.763 -276.45438,-144.5707 -36.76526,-47.2038 -62.33662,-105.3612 -72.35468,-164.5575 -12.01176,-70.977 -3.56696,-144.20017 24.09541,-208.92627 4.07246,-9.52897 4.55333,-10.56328 9.79199,-21.06111 48.30775,-96.80489 137.04454,-168.44583 241.27347,-194.79019 18.50495,-4.67722 36.61656,-7.84746 57.26998,-10.02449 13.87617,-1.46265 55.19348,-1.46201 69.64207,10e-4 63.2759,6.40742 120.14254,26.44179 171.17322,60.30511 94.13373,62.46594 154.78703,163.48508 165.50353,275.64902 8.6915,90.97003 -16.3605,182.16883 -70.1964,255.54153 -74.61327,101.69 -194.11784,158.6621 -319.74421,152.4336 z m 176.00236,-196.7607 c 9.0879,-2.3735 16.26451,-10.5344 17.30791,-19.6818 1.19391,-10.4669 -3.04886,-18.2996 -13.36538,-24.6743 -34.62397,-21.3945 -81.03457,-39.3848 -123.87288,-48.0173 -32.93553,-6.6369 -58.25323,-9.0437 -95.10049,-9.0405 -35.62896,0 -64.79026,2.5186 -100.90827,8.7044 -15.97108,2.7353 -35.75067,6.7429 -41.84141,8.4775 -7.40034,2.1076 -13.76154,8.4533 -15.9529,15.9139 -3.76593,12.8215 3.78308,26.1272 16.79534,29.6031 3.90527,1.0431 7.87274,0.9473 13.31696,-0.3217 4.94205,-1.1519 22.8785,-4.824 27.82242,-5.696 1.6217,-0.2861 4.40178,-0.7777 6.17793,-1.0927 16.80512,-2.9796 36.88245,-5.4624 59.67315,-7.3791 11.76617,-0.9896 57.53082,-1.001 68.51883,-0.017 8.12308,0.7273 21.61072,2.1629 24.56011,2.614 0.85565,0.1309 3.57753,0.5292 6.0487,0.8851 31.63688,4.5568 68.55291,15.1069 93.42098,26.6984 2.26707,1.0568 4.24878,1.9213 4.40379,1.9213 1.33786,0 26.67983,13.4818 34.02448,18.1008 5.61939,3.534 12.66464,4.6488 18.97073,3.0019 z m 40.47867,-98.6161 c 7.03683,-1.3263 15.11463,-6.8048 19.03026,-12.9068 2.93283,-4.5704 4.49551,-10.0168 4.48776,-15.6412 -0.0168,-12.2006 -5.41198,-20.6046 -17.96546,-27.9841 -28.17983,-16.5653 -55.99241,-29.1286 -88.7375,-40.084 -16.11916,-5.3929 -37.62138,-11.42341 -50.26585,-14.09749 -1.54448,-0.32663 -3.69272,-0.79068 -4.77386,-1.03122 -24.61089,-5.47565 -51.18586,-9.26864 -83.402,-11.9038 -12.29513,-1.0057 -64.73867,-1.00871 -76.94327,-0.005 -20.29127,1.66973 -39.53565,3.96271 -52.65278,6.27362 -1.77616,0.31292 -4.55623,0.80187 -6.17793,1.08658 -13.14411,2.30752 -40.43197,8.80842 -50.50277,12.03151 -11.00157,3.5209 -17.60277,9.481 -21.18582,19.1282 -1.55938,4.1986 -2.09527,10.8433 -1.21542,15.0704 0.3688,1.7718 0.64255,3.357 0.60836,3.5228 -0.0342,0.1657 0.89536,2.128 2.06569,4.3605 5.17663,9.8753 15.36546,16.1093 26.35856,16.1276 3.10674,0.01 6.19965,-0.6105 13.75993,-2.7391 10.56582,-2.9747 13.37115,-3.6768 27.16291,-6.7979 5.39287,-1.2204 16.67107,-3.3111 22.4652,-4.1644 17.83322,-2.6264 24.84939,-3.4262 43.24548,-4.9296 11.06663,-0.9044 56.22467,-0.901 67.39557,0.01 28.61682,2.3212 45.76163,4.6094 68.51881,9.1448 49.50867,9.8669 94.42158,26.3813 132.48637,48.7152 7.28804,4.2761 12.16169,6.4803 15.50305,7.0116 2.83511,0.4507 7.78891,0.3612 10.73471,-0.194 z m 49.51148,-115.44575 c 17.1695,-4.44906 28.8278,-21.67281 26.2373,-38.76249 -1.3071,-8.62321 -4.0025,-13.87797 -10.3457,-20.16928 -3.7774,-3.74656 -5.9763,-5.30564 -13.2353,-9.38412 -43.5189,-24.45133 -95.48745,-43.00733 -153.04405,-54.64623 -10.59172,-2.14182 -10.83097,-2.18614 -23.86926,-4.42124 -40.25408,-6.90057 -83.5571,-10.4382 -127.77075,-10.4382 -23.5136,0 -52.78809,1.29221 -69.9229,3.08648 -1.69893,0.1779 -5.48993,0.57391 -8.42444,0.88002 -33.60194,3.50514 -67.53447,9.90486 -95.47284,18.0063 -10.90366,3.16179 -17.34709,7.0894 -22.24297,13.55828 -3.25151,4.29617 -4.94727,7.89516 -6.40431,13.59214 -2.93774,11.48643 0.54806,23.83493 9.19244,32.56432 6.00903,6.06815 11.80683,8.98188 20.73038,10.41827 5.11869,0.82393 9.17594,0.31943 18.09647,-2.25021 28.13751,-8.10526 60.54171,-13.85536 94.91542,-16.84268 73.17005,-6.35897 151.41794,-0.71903 218.75476,15.76736 43.08553,10.54884 81.03833,25.07113 111.86489,42.80408 7.1099,4.08998 9.49244,5.21319 13.37853,6.30711 3.65993,1.03027 13.46733,0.99123 17.56233,-0.0699 z"
       id="path21" />
  </g>
</svg>
